<?xml version="1.0" encoding="iso-8859-1"?>
<!-- Uploaded to: SVG Repo, www.svgrepo.com, Generator: SVG Repo Mixer Tools -->
<svg fill="#000000" height="800px" width="800px" version="1.1" id="Layer_1" xmlns="http://www.w3.org/2000/svg" xmlns:xlink="http://www.w3.org/1999/xlink" 
	 viewBox="0 0 512.011 512.011" xml:space="preserve">
<g>
	<g>
		<path d="M496.304,228.896L271.003,6.176c-8.32-8.235-21.675-8.235-29.995,0L15.707,228.896c-0.021,0-0.043,0.043-0.085,0.064
			C5.552,239.051,0.005,252.448,0.005,266.677c0,14.251,5.547,27.648,15.616,37.717c1.771,1.749,3.755,3.136,5.717,4.587v181.696
			c0,11.776,9.557,21.333,21.333,21.333h426.667c11.776,0,21.333-9.557,21.333-21.333V309.088c1.963-1.493,3.947-2.923,5.717-4.693
			c10.069-10.069,15.616-23.467,15.616-37.717C512.005,252.448,506.459,239.051,496.304,228.896z M341.339,426.677
			c0,11.776-9.557,21.333-21.333,21.333s-21.333-9.557-21.333-21.333v-64h-85.333v64c0,11.776-9.557,21.333-21.333,21.333
			s-21.333-9.557-21.333-21.333V256.011c0-11.776,9.557-21.333,21.333-21.333s21.333,9.557,21.333,21.333v64h85.333v-64
			c0-11.776,9.557-21.333,21.333-21.333s21.333,9.557,21.333,21.333V426.677z M466.224,274.229
			c-0.939,0.917-2.027,1.557-3.157,2.069c-0.277,0.085-0.576,0.085-0.832,0.192c-1.472,0.512-3.243,0.747-5.035,0.555
			c-0.384-0.064-0.747-0.128-1.131-0.213c-0.619-0.149-1.237-0.299-1.835-0.555c-1.109-0.512-2.197-1.152-3.115-2.048
			L271.088,94.176c-4.16-4.16-9.621-6.251-15.083-6.251c-5.461,0-10.923,2.091-15.083,6.251L60.891,274.229
			c-0.939,0.896-2.005,1.536-3.115,2.048c-0.597,0.256-1.216,0.405-1.835,0.555c-0.363,0.085-0.747,0.149-1.109,0.213
			c-1.813,0.192-3.584-0.043-5.056-0.555c-0.256-0.107-0.555-0.107-0.832-0.192c-1.131-0.512-2.219-1.152-3.157-2.091
			c-2.709-2.709-3.115-5.867-3.115-7.531c0-1.643,0.405-4.8,3.115-7.531L256.005,51.339l210.219,207.787
			c2.709,2.731,3.115,5.909,3.115,7.552C469.339,268.341,468.933,271.499,466.224,274.229z"/>
	</g>
</g>
</svg>