<?xml version="1.0" encoding="iso-8859-1"?>
<!-- Uploaded to: SVG Repo, www.svgrepo.com, Generator: SVG Repo Mixer Tools -->
<svg height="800px" width="800px" version="1.1" id="Layer_1" xmlns="http://www.w3.org/2000/svg" xmlns:xlink="http://www.w3.org/1999/xlink" 
	 viewBox="0 0 512.002 512.002" xml:space="preserve">
<path style="fill:#FFFFFF;" d="M184.626,173.567c15.742-16.024,36.942-26.045,57.618-28.99v-33.155
	c0-7.612,6.172-13.784,13.784-13.784c7.612,0,13.784,6.172,13.784,13.784v28.907c12.061-4.439,23.871-6.785,36.587-6.785
	c2.176,0,4.766,0.093,6.489,0.227V56.86L28.588,27.569v172.3l145.681-14.112C177.334,181.467,180.875,177.385,184.626,173.567z
	 M127.926,167.455c-5.305,3.539-11.477,5.409-17.851,5.409c-6.374,0-12.545-1.869-17.851-5.409
	c-15.02-10.014-26.24-20.966-33.355-32.545c-9.489-15.445-10.021-29.102-8.8-37.838c2.467-17.611,14.336-32.281,30.267-37.385
	c4.656-1.485,9.372-2.24,14.017-2.24c5.26,0,10.393,0.977,15.232,2.855c4.923-1.932,10.225-2.934,15.736-2.934
	c4.799,0,9.677,0.779,14.532,2.33c15.902,5.095,27.768,19.768,30.232,37.376c1.223,8.736,0.688,22.391-8.8,37.834
	C154.169,146.489,142.946,157.439,127.926,167.455z"/>
<path style="fill:#FFB8A7;" d="M443.483,403.259c4.588,4.588,10.604,7.116,16.943,7.118c0,0,0,0,0.002,0
	c6.137,0,11.929-2.412,16.309-6.794c9.215-9.213,9.058-23.804-0.357-33.22l-14.26-14.258l-7.311,7.311
	c-2.691,2.691-6.218,4.037-9.747,4.037s-7.056-1.346-9.747-4.037c-5.383-5.384-5.383-14.11,0-19.494l7.311-7.311L421.912,315.9
	l-7.309,7.309c-2.691,2.691-6.218,4.039-9.747,4.039c-3.529,0-7.056-1.346-9.746-4.037c-5.384-5.383-5.384-14.11-0.002-19.493
	l7.311-7.313l-21.614-21.612c-3.908-3.91-5.104-9.773-3.038-14.901c10.726-26.617,4.077-54.684-18.24-77.002
	c-12.416-12.416-28.442-19.889-45.697-21.46c26.786,18.366,44.403,49.194,44.403,84.072c0,22.05-5.865,41.983-16.608,58.237
	c2.145,0.641,4.14,1.807,5.788,3.455L443.483,403.259z"/>
<path d="M495.873,350.87l-89.465-89.462c10.193-34.28,0.007-70.326-27.674-98.011c-10.914-10.914-22.77-19.04-38.277-24.036V56.86
	c0-14.131-10.4-25.975-24.457-27.424L31.841,0.145C30.9,0.047,30.026,0,29.087,0C22.299,0,15.46,2.507,10.368,7.101
	c-5.791,5.226-9.349,12.664-9.349,20.468v172.3c0,7.774,3.57,15.187,9.325,20.415c5.095,4.625,11.853,7.154,18.671,7.154
	c0.886,0,1.845-0.041,2.734-0.128l128.533-12.459c-3.008,9.782-4.856,20.085-4.856,30.649c0,36.93,19.62,69.792,50.635,87.742
	v127.45c0,28.292,22.813,51.31,50.855,51.31c28.013,0,50.804-23.018,50.804-51.31V336.376c8.615-0.107,17.485-1.222,25.859-3.527
	l90.265,90.334c9.797,9.797,22.878,15.618,36.578,15.618c0.002,0,0.003,0,0.005,0c13.5,0,26.216-5.707,35.803-15.294
	C516.038,403.695,515.879,370.877,495.873,350.87z M270.386,440.522h9.764v20.168c0,13.314-10.207,23.742-23.235,23.742
	c-13.057,0-23.287-10.43-23.287-23.742V324.827c0-5.386-2.85-10.278-7.745-12.525c-26.445-12.147-43.016-37.743-43.016-66.804
	c0-36.906,24.915-66.707,59.376-73.027v31.993c0,7.612,6.172,13.784,13.784,13.784c7.612,0,13.784-6.172,13.784-13.784v-31.919
	c34.461,6.546,60.565,36.759,60.565,72.953c0,31.561-15.288,56.107-41.696,67.345c-5.085,2.164-8.529,7.156-8.529,12.683v30.565
	h-9.764c-7.612,0-13.784,6.172-13.784,13.784s6.172,13.784,13.784,13.784h9.764v29.292h-9.764c-7.612,0-13.784,6.172-13.784,13.784
	S262.774,440.522,270.386,440.522z M28.588,27.569L312.889,56.86v76.911c-1.723-0.134-4.313-0.227-6.489-0.227
	c-12.716,0-24.526,2.347-36.587,6.785v-28.907c0-7.612-6.172-13.784-13.784-13.784c-7.612,0-13.784,6.172-13.784,13.784v33.155
	c-20.676,2.945-41.877,12.966-57.618,28.99c-3.751,3.818-7.294,7.9-10.357,12.189L28.588,199.867
	C28.588,199.867,28.588,27.569,28.588,27.569z M358.234,245.498c0-34.878-17.616-65.706-44.403-84.072
	c17.254,1.571,33.279,9.044,45.697,21.46c22.317,22.318,28.966,50.385,18.24,77.002c-2.066,5.128-0.87,10.991,3.038,14.901
	l21.614,21.612l-7.311,7.313c-5.383,5.383-5.383,14.11,0.002,19.493c2.69,2.691,6.217,4.037,9.745,4.037s7.056-1.346,9.747-4.039
	l7.309-7.309l20.713,20.711l-7.311,7.311c-5.383,5.384-5.383,14.11,0,19.494c2.691,2.691,6.218,4.037,9.747,4.037
	s7.056-1.346,9.747-4.037l7.311-7.311l14.26,14.258c9.415,9.416,9.571,24.009,0.357,33.22c-4.38,4.382-10.171,6.794-16.309,6.794
	c-0.002,0-0.002,0-0.002,0c-6.339-0.002-12.354-2.529-16.943-7.118l-96.07-96.07c-1.647-1.647-3.642-2.814-5.788-3.455
	C352.367,287.483,358.234,267.548,358.234,245.498z"/>
<path style="fill:#86D3D6;" d="M270.386,412.953h9.764v-29.292h-9.764c-7.612,0-13.784-6.172-13.784-13.784
	c0-7.612,6.172-13.784,13.784-13.784h9.764v-30.565c0-5.527,3.589-10.519,8.674-12.683c26.407-11.236,41.41-35.784,41.41-67.345
	c0-36.194-25.961-66.408-60.422-72.953v31.919c0,7.612-6.172,13.784-13.784,13.784c-7.612,0-13.784-6.172-13.784-13.784v-31.993
	c-34.461,6.32-59.233,36.122-59.233,73.027c0,29.059,16.284,54.656,42.73,66.804c4.895,2.249,7.888,7.139,7.888,12.525v135.863
	c0,13.314,10.228,23.742,23.287,23.742c13.03,0,23.235-10.43,23.235-23.742v-20.168h-9.764c-7.612,0-13.784-6.172-13.784-13.784
	S262.774,412.953,270.386,412.953z"/>
<path style="fill:#D21E1E;" d="M131.439,85.95c-2.174-0.693-4.216-1.013-6.118-1.013c-5.083,0-9.17,2.283-12.13,5.826
	c-0.877,1.049-2.126,1.57-3.384,1.57c-1.232,0-2.469-0.498-3.37-1.485c-3.101-3.4-7.049-5.831-12.085-5.831
	c-1.744,0-3.617,0.291-5.631,0.934c-12.125,3.884-24.81,29.486,18.798,58.568c0.775,0.517,1.666,0.775,2.555,0.775
	c0.891,0,1.78-0.258,2.555-0.775C156.24,115.436,143.557,89.834,131.439,85.95z"/>
<path d="M170.083,97.074c-2.464-17.609-14.329-32.281-30.232-37.376c-4.854-1.549-9.732-2.33-14.532-2.33
	c-5.512,0-10.812,1.003-15.736,2.934c-4.838-1.878-9.971-2.855-15.232-2.855c-4.644,0-9.361,0.755-14.017,2.24
	c-15.931,5.104-27.801,19.775-30.267,37.385c-1.222,8.736-0.687,22.393,8.8,37.838c7.114,11.579,18.337,22.529,33.355,32.545
	c5.305,3.539,11.477,5.409,17.851,5.409c6.374,0,12.545-1.869,17.851-5.409c15.02-10.014,26.242-20.966,33.356-32.546
	C170.773,119.465,171.307,105.81,170.083,97.074z M110.075,145.293c-0.891,0-1.78-0.258-2.555-0.775
	C63.91,115.436,76.597,89.834,88.722,85.95c2.014-0.643,3.887-0.934,5.631-0.934c5.036,0,8.984,2.431,12.085,5.831
	c0.901,0.987,2.138,1.485,3.37,1.485c1.256,0,2.507-0.52,3.384-1.57c2.96-3.543,7.047-5.826,12.13-5.826
	c1.902,0,3.944,0.32,6.118,1.013c12.118,3.884,24.803,29.486-18.807,58.568C111.855,145.035,110.966,145.293,110.075,145.293z"/>
</svg>